<?xml version="1.0" encoding="UTF-8" standalone="no"?>
<!-- Created with Inkscape (http://www.inkscape.org/) -->

<svg
   xmlns:svg="http://www.w3.org/2000/svg"
   xmlns="http://www.w3.org/2000/svg"
   version="1.1"
   width="250"
   height="135"
   id="svg2"
   xml:space="preserve"><defs
     id="defs6" /><g
     transform="matrix(1.25,0,0,-1.25,0,135)"
     id="g12"><path
       d="m 48.777,0.871 c 13.18,-1.047 41.911,3.168 68.864,8.488 26.125,5.153 50.871,11.446 59.316,15.235 4.82,2.16 8.906,10.613 11.359,22 2.532,11.758 3.442,26.965 1.547,41.773 -1.265,9.887 -41.078,13.211 -84.468,13.492 C 58.863,102.156 8.723,98.934 3.746,96.363 -3.527,92.609 3.625,66.488 14.746,42.914 24.992,21.18 38.613,1.676 48.777,0.871"
       id="path16"
       style="fill:#aeb5c2;fill-opacity:1;fill-rule:evenodd;stroke:none" /><path
       d="m 48.832,7.465 c 12.988,-1.652 42.055,1.226 69.473,5.293 26.574,3.941 51.91,9.086 60.746,12.484 5.039,1.934 10.074,10.199 13.812,21.469 3.864,11.644 6.516,26.805 6.328,41.703 -0.125,9.949 -39.343,15.117 -82.476,17.41 -46.246,2.457 -96.492,1.567 -101.731,-0.773 C 7.316,101.633 11.438,75.188 19.797,51.09 27.496,28.883 38.813,8.742 48.832,7.465"
       id="path18"
       style="fill:#424f73;fill-opacity:1;fill-rule:evenodd;stroke:none" /><path
       d="m 52.52,10.543 c 12.062,-1.539 39.054,1.137 64.515,4.914 24.68,3.66 48.207,8.438 56.414,11.59 4.68,1.801 9.356,9.476 12.828,19.941 3.594,10.809 6.051,24.895 5.875,38.731 -0.113,9.234 -36.535,14.039 -76.589,16.164 -42.95,2.285 -89.614,1.453 -94.477,-0.715 C 13.965,97.992 17.793,73.43 25.555,51.055 32.711,30.43 43.219,11.727 52.52,10.543"
       id="path20"
       style="fill:#334266;fill-opacity:1;fill-rule:evenodd;stroke:none" /><path
       d="m 179.539,25.449 c 2.055,0.953 4.098,2.938 6.047,5.735 -40.828,-0.645 -102.695,-0.645 -157.289,-0.543 0.156,-0.317 0.32,-0.633 0.48,-0.946 3.766,0.008 7.489,0.008 11.137,0.008 57.074,0.051 108.914,0.047 139.625,-4.254"
       id="path22"
       style="fill:#d9822b;fill-opacity:1;fill-rule:evenodd;stroke:none" /><path
       d="m 36.289,39.945 0,6.516 0.844,0 2.672,-3.816 2.672,3.816 0.843,0 0,-6.516 -1.015,0 0,4.688 -2.5,-3.629 -2.496,3.629 0,-4.688 -1.02,0 z"
       id="path24"
       style="fill:#ffffff;fill-opacity:1;fill-rule:evenodd;stroke:none" /><path
       d="m 51.258,39.945 0,6.516 6.113,0 0,-0.953 -5.09,0 0,-1.629 3.344,0 0,-0.934 -3.344,0 0,-2.062 5.375,0 0,-0.938 -6.398,0 z"
       id="path26"
       style="fill:#ffffff;fill-opacity:1;fill-rule:evenodd;stroke:none" /><path
       d="m 64.824,46.449 0,-6.5 2.903,0 c 1.086,0 1.937,0.289 2.574,0.875 0.637,0.586 0.972,1.371 0.972,2.352 0,0.972 -0.324,1.765 -0.972,2.375 -0.656,0.605 -1.512,0.898 -2.574,0.898 l -2.903,0 z m 1.028,-0.926 1.875,0 c 0.738,0 1.339,-0.214 1.796,-0.648 0.461,-0.43 0.704,-0.984 0.704,-1.676 0,-0.711 -0.231,-1.285 -0.676,-1.699 -0.442,-0.418 -1.051,-0.625 -1.824,-0.625 l -1.875,0 0,4.648 z"
       id="path28"
       style="fill:#ffffff;fill-opacity:1;fill-rule:evenodd;stroke:none" /><path
       d="m 78.594,39.945 0,6.532 1.039,0 0,-6.532 -1.039,0 z"
       id="path30"
       style="fill:#ffffff;fill-opacity:1;fill-rule:evenodd;stroke:none" /><path
       d="m 89.648,46.449 -3.324,-6.5 1.074,0 0.852,1.653 3.449,0 0.852,-1.653 1.074,0 -3.324,6.5 -0.653,0 z m 0.329,-1.5 1.273,-2.472 -2.551,0 1.278,2.472 z"
       id="path32"
       style="fill:#ffffff;fill-opacity:1;fill-rule:evenodd;stroke:none" /><path
       d="m 112.41,41.539 c -0.371,-0.586 -0.859,-1.031 -1.461,-1.336 -0.601,-0.312 -1.289,-0.465 -2.054,-0.465 -1.149,0 -2.094,0.325 -2.832,0.973 -0.735,0.648 -1.106,1.473 -1.106,2.469 0,0.996 0.371,1.824 1.106,2.476 0.738,0.657 1.683,0.981 2.832,0.981 0.71,0 1.355,-0.133 1.937,-0.403 0.578,-0.265 1.047,-0.64 1.406,-1.129 l -0.812,-0.566 c -0.27,0.371 -0.621,0.66 -1.067,0.859 -0.437,0.2 -0.925,0.301 -1.464,0.301 -0.84,0 -1.528,-0.238 -2.075,-0.715 -0.547,-0.476 -0.82,-1.07 -0.82,-1.789 0,-0.715 0.273,-1.312 0.824,-1.789 0.547,-0.476 1.239,-0.715 2.071,-0.715 0.578,0 1.089,0.114 1.535,0.344 0.437,0.231 0.828,0.586 1.164,1.067 l 0.816,-0.563 z"
       id="path34"
       style="fill:#ffffff;fill-opacity:1;fill-rule:evenodd;stroke:none" /><path
       d="m 119.828,39.945 0,6.516 6.11,0 0,-0.953 -5.09,0 0,-1.629 3.343,0 0,-0.934 -3.343,0 0,-2.062 5.375,0 0,-0.938 -6.395,0 z"
       id="path36"
       style="fill:#ffffff;fill-opacity:1;fill-rule:evenodd;stroke:none" /><path
       d="m 133.391,39.945 0,6.516 0.539,0 4.14,-4.578 0,4.578 1,0 0,-6.516 -0.531,0 -4.141,4.563 0,-4.563 -1.007,0 z"
       id="path38"
       style="fill:#ffffff;fill-opacity:1;fill-rule:evenodd;stroke:none" /><path
       d="m 148.551,39.945 0,5.61 -2.746,0 0,0.906 6.519,0 0,-0.906 -2.754,0 0,-5.61 -1.019,0 z"
       id="path40"
       style="fill:#ffffff;fill-opacity:1;fill-rule:evenodd;stroke:none" /><path
       d="m 159.035,39.945 0,6.516 6.113,0 0,-0.953 -5.089,0 0,-1.629 3.343,0 0,-0.934 -3.343,0 0,-2.062 5.371,0 0,-0.938 -6.395,0 z"
       id="path42"
       style="fill:#ffffff;fill-opacity:1;fill-rule:evenodd;stroke:none" /><path
       d="m 172.602,46.449 0,-6.5 1.023,0 0,2.852 2.852,0 1.824,-2.852 1.125,0 -1.824,2.852 c 0.476,0.074 0.878,0.289 1.171,0.625 0.301,0.336 0.454,0.734 0.454,1.199 0,0.57 -0.2,1.031 -0.579,1.352 -0.371,0.32 -0.886,0.472 -1.546,0.472 l -4.5,0 z m 1.023,-0.949 3.477,0 c 0.347,0 0.617,-0.074 0.796,-0.227 0.188,-0.148 0.278,-0.367 0.278,-0.648 0,-0.285 -0.09,-0.496 -0.278,-0.648 -0.179,-0.157 -0.449,-0.227 -0.796,-0.227 l -3.477,0 0,1.75 z"
       id="path44"
       style="fill:#ffffff;fill-opacity:1;fill-rule:evenodd;stroke:none" /><path
       d="m 96.75,20.84375 -1.46875,10.125 -8.875,0 c -5.39,0 -10.375,1.91 -14.96875,5.71875 -1.20625,1.005 -2.28875,2.0425 -3.25,3.15625 C 67.65,38.73 66.98125,37.6925 66.15625,36.6875 c -3.135,-3.80875 -7.4225,-5.71875 -12.8125,-5.71875 l -11.46875,0 c -0.41,2.13875 -0.0075,3.96 1.21875,5.46875 1.22,1.50875 2.8875,2.28125 5.03125,2.28125 l 3.75,0 c 3.2125,0 5.72,1.15 7.53125,3.46875 1.81125,2.32375 2.4225,5.10375 1.8125,8.3125 -0.61125,3.2175 -2.2525,5.96 -4.9375,8.25 -2.69625,2.285 -5.6675,3.4375 -8.875,3.4375 l -3.75,0 c -2.14875,0 -4.10875,0.74125 -5.90625,2.25 -1.79625,1.50875 -2.9075,3.325 -3.3125,5.46875 l 11.5,0 c 5.39125,0 10.3525,-1.87625 14.9375,-5.65625 1.20625,-0.995 2.2925,-2.0475 3.25,-3.15625 0.53625,1.10875 1.2325,2.16125 2.0625,3.15625 3.14,3.78 7.39,5.65625 12.78125,5.65625 l 11.5,0 c 0.41,-2.14375 0.0062,-3.96 -1.21875,-5.46875 -1.21625,-1.50875 -2.91875,-2.25 -5.0625,-2.25 l -3.71875,0 c -3.2175,0 -5.74125,-1.1525 -7.5625,-3.4375 -1.82125,-2.29 -2.4325,-5.0325 -1.8125,-8.25 0.61,-3.20875 2.26875,-5.98875 4.96875,-8.3125 2.7,-2.31875 5.66625,-3.46875 8.875,-3.46875 l 3.75,0 c 2.095564,0 4.016679,-0.745679 5.78125,-2.1875 l -2.03125,13.875 c -0.805,5.48375 0.47125,10.12125 3.875,13.96875 3.315,3.89125 7.79875,5.8125 13.21875,5.8125 5.48875,0 10.47375,-1.92125 15,-5.8125 4.4875,-3.8475 7.12625,-8.485 7.9375,-13.96875 0.805,-5.4875 -0.4775,-10.12125 -3.8125,-13.96875 -3.40375,-3.80875 -7.8475,-5.75 -13.375,-5.75 l -11.6875,0 0.25,-1.53125 c 0.31625,-2.255 -0.1925,-4.24 -1.59375,-5.875 -1.3625,-1.63625 -3.22375,-2.4375 -5.5,-2.4375 z m 5.6875,17.71875 11.71875,0 c 3.27625,0 5.87875,1.1175 7.8125,3.4375 1.875,2.31375 2.5575,5.155 2.09375,8.40625 -0.46875,3.2525 -2.00875,6.03625 -4.5625,8.375 -2.6125,2.35875 -5.53625,3.5625 -8.8125,3.5625 -3.25125,0 -5.84375,-1.20375 -7.78125,-3.5625 -1.91,-2.33875 -2.65125,-5.1225 -2.1875,-8.375 L 102.4375,38.5625 z"
       transform="matrix(0.8,0,0,-0.8,0,108)"
       id="path46"
       style="fill:#82c223;fill-opacity:1;fill-rule:nonzero;stroke:none" /><path
       d="m 154.5625,30.6875 c -5.42375,0 -10.43125,1.92875 -14.875,5.78125 -4.53125,3.91125 -7.19,8.54375 -8,14.03125 l -2.875,19.6875 c 2.31375,0 4.3925,-0.77125 6.21875,-2.40625 1.875,-1.61625 2.94,-3.56125 3.28125,-5.875 L 139.96875,50.5 c 0.48875,-3.27625 2.06375,-6.09125 4.65625,-8.46875 2.6175,-2.32 5.525,-3.46875 8.78125,-3.46875 3.2725,0 5.87875,1.14875 7.8125,3.46875 1.87,2.3775 2.5825,5.1925 2.09375,8.46875 l -1.65625,11.40625 c -0.33625,2.275 0.25,4.17625 1.65625,5.8125 1.38125,1.635 3.1925,2.46875 5.46875,2.46875 l 2.875,-19.6875 c 0.4875,-3.27625 2.0075,-6.09125 4.625,-8.46875 2.61125,-2.32 5.555,-3.46875 8.8125,-3.46875 3.25125,0 5.81625,1.14875 7.75,3.46875 1.875,2.3775 2.645,5.1925 2.15625,8.46875 l -1.6875,11.40625 c -0.34125,2.275 0.22375,4.17625 1.625,5.8125 1.40125,1.635 3.19375,2.46875 5.46875,2.46875 L 201.75,60.96875 c 0.61738,1.211905 1.39635,2.364225 2.34375,3.4375 3.37875,3.8525 7.79375,5.78125 13.21875,5.78125 l 11.65625,0 c 0.3175,-2.1675 -0.15,-4.02875 -1.46875,-5.5625 -1.29375,-1.5275 -3.05125,-2.28125 -5.21875,-2.28125 l -3.8125,0 c -3.2575,0 -5.8475,-1.185 -7.78125,-3.5 -1.9775,-2.31875 -2.71375,-5.09125 -2.25,-8.34375 0.49375,-3.27625 2.02625,-6.09125 4.6875,-8.46875 2.6125,-2.32 5.55625,-3.46875 8.8125,-3.46875 l 3.78125,0 c 2.1675,0 4.19,-0.81125 5.9375,-2.34375 1.76375,-1.52875 2.745,-3.33875 3.0625,-5.53125 l -11.65625,0 c -5.425,0 -10.39875,1.92875 -14.90625,5.78125 -2.19283,1.921948 -3.93342,4.026064 -5.25,6.3125 -0.63218,-2.304013 -1.76815,-4.414839 -3.40625,-6.3125 -3.35875,-3.8525 -7.75375,-5.78125 -13.28125,-5.78125 -3.06125,0 -6.04,0.71125 -9.0625,2.09375 -2.97375,1.38125 -5.61125,3.22875 -7.84375,5.65625 -1.57625,-2.4275 -3.67625,-4.3375 -6.25,-5.71875 -2.55375,-1.33875 -5.375,-2.03125 -8.5,-2.03125 z"
       transform="matrix(0.8,0,0,-0.8,0,108)"
       id="path48"
       style="fill:#bdd1e3;fill-opacity:1;fill-rule:nonzero;stroke:none" /></g></svg>